#!OML:ASF E:\Steps\Project 1\Capture day 1\Session 2\Subject.ASF
:FULLY-SPECIFIED
:DEGREES
873
root 9.57699 22.5947 -14.9517 -153.323 -1.9738 177.076
lowerback -30.8708 -1.40661 -8.022
upperback -2.09909 0.16347 -0.902188
thorax 13.7021 -0.746184 3.32736
lowerneck -5.37721 -2.21447 -1.04434
upperneck -0.261629 -3.01506 3.34682
head 0.890381 -1.49573 1.1384
rclavicle 6.21202e-015 -5.68524e-014
rhumerus -35.1088 -17.0724 -78.839
rradius 30.0979
rwrist -2.26132
rhand -9.68134 -50.2357
rfingers 7.12502
rthumb 16.2905 -79.5714
lclavicle 6.21202e-015 -5.68524e-014
lhumerus -30.6874 5.73835 81.3808
lradius 22.7639
lwrist -5.34668
lhand -18.9661 -13.1574
lfingers 7.12502
lthumb 7.33783 16.6953
rfemur -19.9342 5.99075 17.7183
rtibia 3.7083
rfoot -16.7042 -4.90786
rtoes -26.7024
lfemur -21.9348 -10.8671 -20.6199
ltibia 9.2902
lfoot -9.08246 -1.94809
ltoes -33.4411
874
root 9.57731 22.5942 -14.9518 -153.375 -1.93151 177.07
lowerback -30.7584 -1.41056 -8.03418
upperback -2.12978 0.147502 -0.889908
thorax 13.6189 -0.75073 3.34244
lowerneck -5.19941 -2.18075 -1.02227
upperneck -0.247943 -2.96866 3.33844
head 0.862669 -1.47264 1.13468
rclavicle 1.98785e-015 0
rhumerus -35.1588 -17.2822 -78.6106
rradius 29.6088
rwrist -2.16464
rhand -10.1308 -49.2904
rfingers 7.12502
rthumb 15.8577 -78.661
lclavicle 1.98785e-015 0
lhumerus -30.7954 5.75093 81.3908
lradius 22.8166
lwrist -5.35332
lhand -18.937 -13.2014
lfingers 7.12502
lthumb 7.366 16.6504
rfemur -19.8764 5.98702 17.7182
rtibia 3.71231
rfoot -16.8121 -4.91318
rtoes -26.1392
lfemur -21.8588 -10.8825 -20.6401
ltibia 9.28084
lfoot -9.15005 -1.90817
ltoes -33.1603
875
root 9.57842 22.5947 -14.9521 -153.445 -1.87092 177.036
lowerback -30.6387 -1.42228 -8.08394
upperback -2.15054 0.136337 -0.884008
thorax 13.5425 -0.755063 3.37276
lowerneck -5.10922 -2.16011 -1.05685
upperneck -0.127621 -2.93928 3.39355
head 0.88627 -1.45526 1.15917
rclavicle -1.53064e-014 2.70347e-014
rhumerus -35.2956 -17.5993 -78.3767
rradius 29.3528
rwrist -1.88268
rhand -10.2924 -48.9912
rfingers 7.12502
rthumb 15.7021 -78.3742
lclavicle -1.53064e-014 2.70347e-014
lhumerus -30.8456 5.74725 81.3845
lradius 22.7974
lwrist -5.27743
lhand -18.7837 -13.2848
lfingers 7.12502
lthumb 7.51396 16.5618
rfemur -19.8032 6.01404 17.6809
rtibia 3.7102
rfoot -16.8959 -4.9844
rtoes -26.5554
lfemur -21.7594 -10.8332 -20.7025
ltibia 9.23638
lfoot -9.1794 -1.93944
ltoes -32.2808
876
root 9.57901 22.5949 -14.9516 -153.442 -1.78998 176.996
lowerback -30.5996 -1.42559 -8.11947
upperback -2.17192 0.136766 -0.894741
thorax 13.4995 -0.756111 3.3804
lowerneck -5.09912 -2.14317 -1.04149
upperneck -0.0507113 -2.91821 3.40539
head 0.908205 -1.44325 1.16072
rclavicle 2.08724e-015 -1.03368e-014
rhumerus -35.418 -17.9162 -78.1761
rradius 29.17
rwrist -1.59627
rhand -10.021 -49.3379
rfingers 7.12502
rthumb 15.9634 -78.7001
lclavicle 2.08724e-015 -1.03368e-014
lhumerus -30.8185 5.73104 81.3589
lradius 22.6403
lwrist -5.22741
lhand -18.7803 -13.373
lfingers 7.12502
lthumb 7.51726 16.4734
rfemur -19.838 6.07279 17.6023
rtibia 3.73161
rfoot -16.7733 -4.95123
rtoes -26.3272
lfemur -21.7364 -10.8248 -20.7605
ltibia 9.18089
lfoot -9.17397 -1.88926
ltoes -32.1118
877
root 9.57925 22.5943 -14.9537 -153.403 -1.78577 177.041
lowerback -30.6512 -1.41149 -8.04313
upperback -2.18441 0.129958 -0.902023
thorax 13.51 -0.75658 3.32795
lowerneck -5.01642 -2.13261 -0.982373
upperneck -0.0826861 -2.90714 3.40528
head 0.882638 -1.4388 1.15158
rclavicle -5.01931e-015 -2.54444e-014
rhumerus -35.6025 -18.1789 -78.0216
rradius 29.0204
rwrist -1.48404
rhand -10.4928 -48.8733
rfingers 7.12502
rthumb 15.509 -78.2713
lclavicle -5.01931e-015 -2.54444e-014
lhumerus -30.771 5.69299 81.3355
lradius 22.4743
lwrist -5.22511
lhand -18.9013 -13.426
lfingers 7.12502
lthumb 7.40039 16.4245
rfemur -19.8768 6.07517 17.6559
rtibia 3.73275
rfoot -16.6581 -4.90401
rtoes -27.0869
lfemur -21.7515 -10.862 -20.6938
ltibia 9.1427
lfoot -9.17943 -1.81524
ltoes -32.5085
878
root 9.58087 22.5934 -14.9588 -153.381 -1.83057 177.158
lowerback -30.7211 -1.38894 -7.90624
upperback -2.19737 0.113698 -0.894277
thorax 13.5305 -0.758214 3.25564
lowerneck -4.94808 -2.0992 -0.942571
upperneck -0.070992 -2.86647 3.45924
head 0.874106 -1.41837 1.16328
rclavicle -2.68359e-015 2.46493e-014
rhumerus -35.8149 -18.3605 -77.9189
rradius 28.8801
rwrist -1.43933
rhand -10.7545 -48.776
rfingers 7.12502
rthumb 15.257 -78.1933
lclavicle -2.68359e-015 2.46493e-014
lhumerus -30.7537 5.67388 81.2988
lradius 22.3923
lwrist -5.26589
lhand -18.9419 -13.3918
lfingers 7.12502
lthumb 7.36127 16.4601
rfemur -19.8714 6.08906 17.8222
rtibia 3.72478
rfoot -16.6618 -4.89691
rtoes -27.2714
lfemur -21.7521 -10.8468 -20.5324
ltibia 9.11015
lfoot -9.1511 -1.83677
ltoes -32.7632
879
root 9.58188 22.5927 -14.9614 -153.349 -1.84608 177.251
lowerback -30.7699 -1.37651 -7.81158
upperback -2.2078 0.0956905 -0.868314
thorax 13.544 -0.762596 3.2254
lowerneck -4.9938 -2.07271 -0.985192
upperneck 0.0186865 -2.83203 3.53523
head 0.9117 -1.39876 1.19482
rclavicle 4.12478e-015 2.78299e-014
rhumerus -35.9223 -18.464 -77.8222
rradius 28.7327
rwrist -1.39082
rhand -10.0547 -49.6575
rfingers 7.12502
rthumb 15.931 -79.0223
lclavicle 4.12478e-015 2.78299e-014
lhumerus -30.7936 5.67106 81.2757
lradius 22.4197
lwrist -5.26085
lhand -18.8758 -13.3609
lfingers 7.12502
lthumb 7.42504 16.4888
rfemur -19.8864 6.16205 17.9299
rtibia 3.69602
rfoot -16.792 -4.8861
rtoes -26.3857
lfemur -21.77 -10.8284 -20.4074
ltibia 9.08022
lfoot -9.09836 -1.85226
ltoes -32.6379
880
root 9.58225 22.5923 -14.9618 -153.303 -1.79443 177.257
lowerback -30.8363 -1.36227 -7.82256
upperback -2.19756 0.123699 -0.871504
thorax 13.5816 -0.752871 3.23775
lowerneck -4.96152 -2.08222 -0.991877
upperneck -0.0479842 -2.84544 3.5864
head 0.886738 -1.40664 1.21215
rclavicle -8.39865e-015 -2.38542e-015
rhumerus -36.0138 -18.9314 -77.4986
rradius 28.3109
rwrist -0.944075
rhand -10.0237 -48.8988
rfingers 7.12502
rthumb 15.9608 -78.2612
lclavicle -8.39865e-015 -2.38542e-015
lhumerus -30.8206 5.56186 81.2708
lradius 22.4157
lwrist -5.17635
lhand -18.8677 -13.4962
lfingers 7.12502
lthumb 7.43286 16.3532
rfemur -19.9482 6.26794 17.8975
rtibia 3.6963
rfoot -16.7904 -4.91097
rtoes -26.1699
lfemur -21.8003 -10.8227 -20.399
ltibia 9.05172
lfoot -9.06838 -1.78974
ltoes -32.2304
881
root 9.58156 22.592 -14.9601 -153.277 -1.72075 177.175
lowerback -30.8376 -1.33822 -7.89469
upperback -2.19921 0.183744 -0.923708
thorax 13.5716 -0.730006 3.24279
lowerneck -4.8435 -2.11014 -0.936474
upperneck -0.20589 -2.88556 3.6253
head 0.817774 -1.43037 1.21521
rclavicle 1.30204e-014 -3.77691e-014
rhumerus -36.1051 -19.3945 -77.2411
rradius 28.0857
rwrist -0.441632
rhand -10.5425 -48.8332
rfingers 7.12502
rthumb 15.4612 -78.2349
lclavicle 1.30204e-014 -3.77691e-014
lhumerus -30.8057 5.46308 81.2379
lradius 22.326
lwrist -5.2463
lhand -18.9211 -13.6292
lfingers 7.12502
lthumb 7.38128 16.2221
rfemur -20.0518 6.21934 17.7853
rtibia 3.82591
rfoot -16.9712 -4.88663
rtoes -25.8671
lfemur -21.8125 -10.8545 -20.505
ltibia 9.02327
lfoot -9.08041 -1.7056
ltoes -32.1992
882
root 9.58072 22.5927 -14.956 -153.286 -1.67509 177.101
lowerback -30.7303 -1.32255 -7.94228
upperback -2.22234 0.212704 -0.962697
thorax 13.4935 -0.716172 3.23847
lowerneck -4.7601 -2.10889 -0.93078
upperneck -0.299372 -2.88465 3.68178
head 0.775356 -1.43199 1.23296
rclavicle -9.0944e-015 4.21423e-014
rhumerus -36.2908 -19.6637 -77.0979
rradius 28.0359
rwrist -0.404167
rhand -10.8821 -49.0404
rfingers 7.12502
rthumb 15.1341 -78.4671
lclavicle -9.0944e-015 4.21423e-014
lhumerus -30.8445 5.37673 81.223
lradius 22.2956
lwrist -5.27207
lhand -19.0083 -13.7187
lfingers 7.12502
lthumb 7.29716 16.1355
rfemur -20.1323 6.16033 17.6959
rtibia 3.9726
rfoot -16.9727 -4.89062
rtoes -26.1517
lfemur -21.8271 -10.8502 -20.6047
ltibia 9.05583
lfoot -9.11939 -1.71495
ltoes -32.2101
883
root 9.58166 22.5937 -14.9543 -153.322 -1.64665 177.115
lowerback -30.6287 -1.33078 -7.9392
upperback -2.26909 0.182348 -0.946514
thorax 13.3983 -0.726943 3.24357
lowerneck -4.60141 -2.06047 -0.971
upperneck -0.367775 -2.81669 3.739
head 0.727284 -1.39964 1.26089
rclavicle 9.54166e-015 7.55382e-015
rhumerus -36.5847 -19.7459 -76.9957
rradius 28.082
rwrist -0.651812
rhand -10.9339 -48.939
rfingers 7.12502
rthumb 15.0842 -78.3694
lclavicle 9.54166e-015 7.55382e-015
lhumerus -30.9729 5.25479 81.241
lradius 22.2968
lwrist -5.07439
lhand -19.1274 -13.6693
lfingers 7.12502
lthumb 7.18216 16.1888
rfemur -20.1345 6.26406 17.6968
rtibia 4.01471
rfoot -16.976 -4.944
rtoes -26.2625
lfemur -21.8204 -10.7822 -20.5945
ltibia 9.10728
lfoot -9.16521 -1.75977
ltoes -32.1302
